<svg width="186" height="67" viewBox="0 0 186 67" fill="none" xmlns="http://www.w3.org/2000/svg">
<path d="M81.8083 63C81.1643 61.068 80.5356 59.09 79.9223 57.066C79.3396 55.0113 78.757 52.926 78.1743 50.81C77.6223 48.694 77.0856 46.5473 76.5643 44.37C76.0736 42.1927 75.583 40 75.0923 37.792C74.6323 35.584 74.1876 33.3607 73.7583 31.122H80.5203C80.9496 33.7593 81.4403 36.4887 81.9923 39.31C82.5443 42.1313 83.1116 44.876 83.6943 47.544C84.3076 50.1813 84.921 52.5887 85.5343 54.766C86.0863 53.2327 86.6383 51.6073 87.1903 49.89C87.773 48.142 88.3403 46.394 88.8923 44.646C89.4443 42.8673 89.9656 41.1347 90.4563 39.448C90.947 37.7307 91.407 36.1207 91.8363 34.618H97.1723C97.7856 36.642 98.445 38.8347 99.1503 41.196C99.8556 43.5573 100.592 45.9187 101.358 48.28C102.125 50.6107 102.861 52.7727 103.566 54.766C104.149 52.6193 104.716 50.2273 105.268 47.59C105.851 44.922 106.403 42.1773 106.924 39.356C107.476 36.5347 107.982 33.79 108.442 31.122H114.928C114.468 33.3607 113.993 35.584 113.502 37.792C113.042 40 112.552 42.1927 112.03 44.37C111.54 46.5473 111.003 48.694 110.42 50.81C109.868 52.926 109.286 54.996 108.672 57.02C108.09 59.044 107.476 61.0373 106.832 63H100.944C100.178 60.9453 99.411 58.8447 98.6443 56.698C97.9083 54.5207 97.1723 52.2973 96.4363 50.028C95.731 47.7587 95.0103 45.4587 94.2743 43.128C93.569 45.4587 92.8483 47.7587 92.1123 50.028C91.407 52.2973 90.6863 54.5207 89.9503 56.698C89.2143 58.8447 88.463 60.9453 87.6963 63H81.8083ZM128.976 63.368C127.688 63.368 126.216 63.3067 124.56 63.184C122.904 63.092 121.309 62.8773 119.776 62.54V31.582C121.309 31.2753 122.935 31.0607 124.652 30.938C126.369 30.8153 127.872 30.754 129.16 30.754C132.748 30.754 135.891 31.3213 138.59 32.456C141.289 33.5907 143.389 35.354 144.892 37.746C146.395 40.138 147.146 43.2353 147.146 47.038C147.146 50.6873 146.395 53.7233 144.892 56.146C143.42 58.5687 141.319 60.378 138.59 61.574C135.861 62.77 132.656 63.368 128.976 63.368ZM129.344 57.986C133.147 57.986 135.968 57.02 137.808 55.088C139.679 53.1253 140.614 50.442 140.614 47.038C140.614 43.5113 139.709 40.8127 137.9 38.942C136.121 37.0713 133.331 36.136 129.528 36.136C128.761 36.136 128.087 36.1513 127.504 36.182C126.952 36.2127 126.477 36.2587 126.078 36.32V57.848C126.385 57.8787 126.783 57.9093 127.274 57.94C127.795 57.9707 128.485 57.986 129.344 57.986ZM153.288 63V31.122H173.942V36.412H159.59V44.094H172.332V49.384H159.59V63H153.288Z" fill="white"/>
<path d="M76.3404 25.224C75.3911 25.224 74.6178 25.128 74.0204 24.936C73.4338 24.7333 73.0018 24.552 72.7244 24.392L73.3644 22.648C73.6631 22.8187 74.0578 22.9787 74.5484 23.128C75.0391 23.2773 75.6364 23.352 76.3404 23.352C77.0871 23.352 77.6098 23.2347 77.9084 23C78.2071 22.7547 78.3564 22.4293 78.3564 22.024C78.3564 21.704 78.2658 21.4427 78.0844 21.24C77.9138 21.0267 77.6524 20.8347 77.3004 20.664C76.9484 20.4933 76.5058 20.3173 75.9724 20.136C75.4604 19.944 74.9698 19.7253 74.5004 19.48C74.0418 19.224 73.6684 18.8933 73.3804 18.488C73.0924 18.0827 72.9484 17.5493 72.9484 16.888C72.9484 16.216 73.1084 15.64 73.4284 15.16C73.7591 14.68 74.2178 14.312 74.8044 14.056C75.4018 13.7893 76.1058 13.656 76.9164 13.656C77.6311 13.656 78.2551 13.736 78.7884 13.896C79.3324 14.056 79.7751 14.232 80.1164 14.424L79.4604 16.152C79.1511 15.9813 78.7991 15.8373 78.4044 15.72C78.0098 15.592 77.5511 15.528 77.0284 15.528C76.4098 15.528 75.9458 15.624 75.6364 15.816C75.3378 16.008 75.1884 16.312 75.1884 16.728C75.1884 17.0267 75.2791 17.272 75.4604 17.464C75.6418 17.656 75.8871 17.8267 76.1964 17.976C76.5058 18.1147 76.8524 18.2533 77.2364 18.392C77.9724 18.6587 78.5858 18.936 79.0764 19.224C79.5778 19.512 79.9564 19.8747 80.2124 20.312C80.4791 20.7387 80.6124 21.3093 80.6124 22.024C80.6124 22.696 80.4524 23.272 80.1324 23.752C79.8124 24.232 79.3324 24.6 78.6924 24.856C78.0631 25.1013 77.2791 25.224 76.3404 25.224ZM82.5542 25V13.912H89.8022V15.752H84.7462V18.296H89.2422V20.104H84.7462V23.16H90.1862V25H82.5542ZM94.9498 25.224C94.0005 25.224 93.2271 25.128 92.6298 24.936C92.0431 24.7333 91.6111 24.552 91.3338 24.392L91.9738 22.648C92.2725 22.8187 92.6671 22.9787 93.1578 23.128C93.6485 23.2773 94.2458 23.352 94.9498 23.352C95.6965 23.352 96.2191 23.2347 96.5178 23C96.8165 22.7547 96.9658 22.4293 96.9658 22.024C96.9658 21.704 96.8751 21.4427 96.6938 21.24C96.5231 21.0267 96.2618 20.8347 95.9098 20.664C95.5578 20.4933 95.1151 20.3173 94.5818 20.136C94.0698 19.944 93.5791 19.7253 93.1098 19.48C92.6511 19.224 92.2778 18.8933 91.9898 18.488C91.7018 18.0827 91.5578 17.5493 91.5578 16.888C91.5578 16.216 91.7178 15.64 92.0378 15.16C92.3685 14.68 92.8271 14.312 93.4138 14.056C94.0111 13.7893 94.7151 13.656 95.5258 13.656C96.2405 13.656 96.8645 13.736 97.3978 13.896C97.9418 14.056 98.3845 14.232 98.7258 14.424L98.0698 16.152C97.7605 15.9813 97.4085 15.8373 97.0138 15.72C96.6191 15.592 96.1605 15.528 95.6378 15.528C95.0191 15.528 94.5551 15.624 94.2458 15.816C93.9471 16.008 93.7978 16.312 93.7978 16.728C93.7978 17.0267 93.8885 17.272 94.0698 17.464C94.2511 17.656 94.4965 17.8267 94.8058 17.976C95.1151 18.1147 95.4618 18.2533 95.8458 18.392C96.5818 18.6587 97.1951 18.936 97.6858 19.224C98.1871 19.512 98.5658 19.8747 98.8218 20.312C99.0885 20.7387 99.2218 21.3093 99.2218 22.024C99.2218 22.696 99.0618 23.272 98.7418 23.752C98.4218 24.232 97.9418 24.6 97.3018 24.856C96.6725 25.1013 95.8885 25.224 94.9498 25.224Z" fill="white"/>
<path d="M59.5188 26.3367C59.8161 28.1702 59.9152 30.0038 59.9152 31.8373C59.9152 48.2401 46.8816 61.5705 30.6762 61.9669C30.6762 61.9669 39.5966 57.953 49.3099 45.1181C58.825 32.5806 59.5188 26.3367 59.5188 26.3367Z" fill="white"/>
<path d="M56.6445 3.98684C53.8197 0.914408 46.0887 6.41505 46.0887 6.41505C49.6568 8.69459 52.6798 11.7175 55.009 15.2359C54.9595 15.2854 59.271 6.9106 56.6445 3.98684ZM59.6675 0.914409C62.74 3.44173 62.74 8.64503 58.6763 19.4481C53.5223 33.0758 41.3807 46.3566 35.3346 52.6006C28.4957 59.6374 15.2638 69.0529 9.81242 65.7327C4.75754 62.6603 8.32569 53.4926 8.6726 52.5015C11.3983 44.1762 18.7328 33.3731 19.7735 26.138C20.8638 18.2588 18.2868 16.2765 16.2054 15.1863C14.9169 14.4926 8.62304 12.5599 3.46904 23.0656C-1.68496 33.5713 2.97346 44.9691 2.97346 44.9691C0.991154 40.856 0 36.396 0 31.8369C0 15.1863 13.3806 1.70729 29.9824 1.70729C34.9877 1.70729 39.8444 2.94617 44.255 5.32483C44.2055 5.37438 55.2568 -2.65357 59.6675 0.914409Z" fill="white"/>
</svg>
