<svg width="400" height="832" viewBox="0 0 400 832" fill="none" xmlns="http://www.w3.org/2000/svg">
<g clip-path="url(#clip0_10_7879)">
<path fill-rule="evenodd" clip-rule="evenodd" d="M2.03929 60.5371C2.03929 27.1034 29.1427 0 62.5764 0H337.391C370.825 0 397.928 27.1034 397.928 60.5371V258.861C399.072 258.861 400 259.788 400 260.933V357.521C400 358.666 399.072 359.594 397.928 359.594V771.099C397.928 804.533 370.825 831.636 337.391 831.636H62.5764C29.1427 831.636 2.03929 804.533 2.03929 771.099V359.151C0.911117 359.132 0.00234132 358.212 0.00234132 357.079V298.804C0.00234132 297.671 0.911117 296.751 2.03929 296.732V277.738C0.910033 277.721 0 276.8 0 275.667V216.726C0 215.593 0.910033 214.672 2.03929 214.655V185.832C0.910033 185.815 0 184.894 0 183.761V156.625C0 155.491 0.910033 154.57 2.03929 154.553V60.5371ZM62.5764 11.3882C35.4322 11.3882 13.4275 33.3929 13.4275 60.5371V771.099C13.4275 798.243 35.4322 820.248 62.5764 820.248H337.391C364.535 820.248 386.54 798.243 386.54 771.099V60.5371C386.54 33.3929 364.535 11.3882 337.391 11.3882H62.5764Z" fill="black"/>
</g>
<defs>
<clipPath id="clip0_10_7879">
<rect width="400" height="831.636" fill="white"/>
</clipPath>
</defs>
</svg>
